<?xml version="1.0" encoding="utf-8"?>
<!-- Generator: Adobe Illustrator 22.1.0, SVG Export Plug-In . SVG Version: 6.00 Build 0)  -->
<svg version="1.1" xmlns="http://www.w3.org/2000/svg" xmlns:xlink="http://www.w3.org/1999/xlink" x="0px" y="0px"
	 viewBox="0 0 315.3 251.9" style="enable-background:new 0 0 315.3 251.9;" xml:space="preserve">
<style type="text/css">
	.st0{display:none;}
	.st1{fill:#040304;stroke:#000000;stroke-miterlimit:10;}
	.st2{fill:none;stroke:#000000;stroke-miterlimit:10;}
	.st3{fill:#030203;stroke:#000000;stroke-miterlimit:10;}
</style>
<g id="billede" class="st0">

		<image style="display:inline;overflow:visible;" width="532" height="350" xlink:href="Gryde.JPG"  transform="matrix(0.75 0 0 0.75 -37.5496 -27.6334)">
	</image>
</g>
<g id="stregtegning">
	<g>
		<g>
			<path class="st1" d="M307.4,104.2c0,0-4.9-16.1-15.3-19.8c0,0-12.5-5.6-27.1,1.5c0,0-20.6-20.1-45.1-26.8c0,0-18.2-6.9-36.6-8
				c0,0-8.2-0.7-18.1-1c-4.7-0.1-9.7-0.2-14.4,0c-4,0.2-7.8,0.5-11,1c0,0-36.1,4.5-45.4,10.8c0,0-14,5.9-21.5,11.2
				c0,0-13.2,9.2-21.8,20c0,0-17.8-6.3-25.8-2c0,0-12.7,5.6-17.3,19.1c0,0-1.6,10,0,16.1c0,0,2.2,10.1,9,15.1c0,0,9,7.4,19.9,7.6
				c0,0,17.4-1.5,19,0.6l7.6,46.4c0,0,10.1,27.1,43.6,39.4c0,0,33,16.8,81.1,6.7c0,0,33.6-5.6,54.3-28c0,0,7.7-4.8,12.8-17
				l11.6-57.5c0,0,0.6,5.9,24.3,3.4c0,0,13.6-4.8,15.6-15.1C306.6,127.8,310.1,114.8,307.4,104.2z M33.4,136.4
				c-12.6-0.3-11.9-7.5-11.9-7.5c-2.8-6.3-2.8-12.6-2.8-12.6c0-6.3,6.6-10.8,6.6-10.8c8-5.6,20.2,0,20.2,0
				C42,118.8,48,131.1,48,131.1C49.1,139.8,33.4,136.4,33.4,136.4z M298.8,115.8c-7.8,27.1-25.2,10-25.2,10c1-3.2-2.2-22.7,0-24.4
				c7.2-8.1,15.9-3.7,17.2-3.5C301.1,102,298.8,115.8,298.8,115.8z"/>
			<path class="st2" d="M259.5,172.5"/>
		</g>
		<path class="st3" d="M147.6,50c0,0,9.4-10.1-1.7-12.8c0,0-13.3-2.6-13.3-13.6c0,0,0.7-11.9,14.3-16c0,0,17.9-3.5,27.5-0.3
			c0,0,14.7,3.5,15.4,14.6c0,0,1.6,15.3-14.6,16c0,0-9.8,5.6,0.3,12.1H147.6"/>
	</g>
</g>
</svg>
