<svg id="stregtegning" xmlns="http://www.w3.org/2000/svg" viewBox="0 0 515.91 728.5"><defs><style>.cls-1{fill:#040202;}.cls-1,.cls-2{stroke:#1d1d1b;stroke-miterlimit:10;}.cls-2{fill:#030102;}</style></defs><title>Artboard 1</title><path class="cls-1" d="M399.41,258.84s-4.86-16.09-15.3-19.78A34.08,34.08,0,0,0,357,240.53s-20.56-20.07-45.12-26.81c0,0-18.15-6.91-36.61-8,0,0-8.22-.73-18.13-1-4.66-.14-9.7-.18-14.43,0a86.11,86.11,0,0,0-11,1s-36.13,4.5-45.44,10.76c0,0-14,5.94-21.52,11.24,0,0-13.18,9.22-21.85,20,0,0-17.81-6.33-25.84-2,0,0-12.68,5.62-17.34,19.11,0,0-1.61,10,0,16.06,0,0,2.25,10.11,9,15.09,0,0,9,7.39,19.91,7.55,0,0,17.37-1.46,19,.6l7.57,46.39s10.07,27.13,43.63,39.44c0,0,33,16.78,81.11,6.71,0,0,33.56-5.59,54.26-28,0,0,7.66-4.8,12.8-17l11.64-57.47s.57,5.93,24.33,3.36c0,0,13.65-4.82,15.58-15.1C398.61,282.44,402.14,269.44,399.41,258.84Zm-274,32.24c-12.56-.35-11.92-7.49-11.92-7.49A34.62,34.62,0,0,1,110.68,271c0-6.28,6.62-10.81,6.62-10.81,8-5.58,20.23,0,20.23,0C134,273.47,140,285.74,140,285.74,141.08,294.46,125.39,291.08,125.39,291.08Zm265.47-20.65c-7.83,27.11-25.24,10-25.24,10,1-3.18-2.21-22.67,0-24.36,7.2-8.09,15.87-3.74,17.2-3.53C393.08,256.63,390.86,270.43,390.86,270.43Z"/><path class="cls-2" d="M239.66,204.67s9.43-10.06-1.68-12.81c0,0-13.26-2.63-13.26-13.6,0,0,.7-11.86,14.3-16,0,0,17.94-3.46,27.54-.35,0,0,14.66,3.49,15.36,14.65,0,0,1.57,15.33-14.65,16,0,0-9.82,5.58.29,12.11h-27.9"/></svg>
